####
#
# OBJ File Generated by Meshlab
#
####
# Object bar1.obj
#
# Vertices: 88
# Faces: 168
#
####
mtllib ./bar1.obj.mtl

vn -1.565370 -1.701245 -1.653937
v -225.000000 15.000000 0.000000 1.000000 1.000000 1.000000
vn 1.570796 -1.570796 -1.570798
v -215.000000 15.000000 0.000000 1.000000 1.000000 1.000000
vn 1.570795 -1.570796 1.570798
v -215.000000 15.000000 15.000000 1.000000 1.000000 1.000000
vn -1.565370 -1.701245 1.653937
v -225.000000 15.000000 15.000000 1.000000 1.000000 1.000000
vn -1.695818 1.434921 -1.570796
v -230.585007 82.019501 0.000000 1.000000 1.000000 1.000000
vn -1.695817 1.434922 1.570796
v -230.585007 82.019501 15.000000 1.000000 1.000000 1.000000
vn -1.682936 1.326243 -4.782073
v -226.600998 82.351501 0.000000 1.000000 1.000000 1.000000
vn -1.682936 1.326243 4.782073
v -226.600998 82.351501 15.000000 1.000000 1.000000 1.000000
vn -2.793977 -1.201472 -3.648170
v -228.593002 95.284203 0.000000 1.000000 1.000000 1.000000
vn -2.793977 -1.201472 3.648170
v -228.593002 95.284203 15.000000 1.000000 1.000000 1.000000
vn -2.688241 -0.350537 -2.082111
v -240.000000 110.000000 0.000000 1.000000 1.000000 1.000000
vn -2.688242 -0.350537 2.082111
v -240.000000 110.000000 15.000000 1.000000 1.000000 1.000000
vn -3.017549 0.611807 -3.541669
v -234.296997 123.486000 0.000000 1.000000 1.000000 1.000000
vn -3.017549 0.611807 3.541669
v -234.296997 123.486000 15.000000 1.000000 1.000000 1.000000
vn -3.133238 0.161790 -3.038411
v -234.296997 138.503006 0.000000 1.000000 1.000000 1.000000
vn -3.133238 0.161790 3.038411
v -234.296997 138.503006 15.000000 1.000000 1.000000 1.000000
vn -3.133238 0.161790 -3.244773
v -230.000000 180.000000 0.000000 1.000000 1.000000 1.000000
vn -3.133238 0.161790 3.244773
v -230.000000 180.000000 15.000000 1.000000 1.000000 1.000000
vn -3.128354 -0.203510 -3.271516
v -230.000000 210.000000 0.000000 1.000000 1.000000 1.000000
vn -3.128354 -0.203510 3.271516
v -230.000000 210.000000 15.000000 1.000000 1.000000 1.000000
vn -2.512038 1.044035 -2.093960
v -234.296997 242.886993 0.000000 1.000000 1.000000 1.000000
vn -2.512037 1.044036 2.093960
v -234.296997 242.886993 15.000000 1.000000 1.000000 1.000000
vn -2.201966 0.292988 -4.712451
v -225.000000 250.000000 0.000000 1.000000 1.000000 1.000000
vn -2.201966 0.292987 4.712451
v -225.000000 250.000000 15.000000 1.000000 1.000000 1.000000
vn -2.201986 0.292972 -1.570750
v -234.296997 262.149994 0.000000 1.000000 1.000000 1.000000
vn -2.201986 0.292972 1.570750
v -234.296997 262.149994 15.000000 1.000000 1.000000 1.000000
vn -2.512061 1.044046 -4.189193
v -229.647995 265.707001 0.000000 1.000000 1.000000 1.000000
vn -2.512061 1.044046 4.189193
v -229.647995 265.707001 15.000000 1.000000 1.000000 1.000000
vn -3.126083 -0.118990 -2.957869
v -231.972000 283.496002 0.000000 1.000000 1.000000 1.000000
vn -3.126083 -0.118990 2.957869
v -231.972000 283.496002 15.000000 1.000000 1.000000 1.000000
vn -2.815942 -0.870149 -3.848626
v -230.809998 305.066986 0.000000 1.000000 1.000000 1.000000
vn -2.815942 -0.870149 3.848626
v -230.809998 305.066986 15.000000 1.000000 1.000000 1.000000
vn -2.815941 -0.870126 -2.434543
v -236.688995 312.748993 0.000000 1.000000 1.000000 1.000000
vn -2.815941 -0.870126 2.434543
v -236.688995 312.748993 15.000000 1.000000 1.000000 1.000000
vn -2.915229 0.893083 -2.654709
v -235.886993 327.632996 0.000000 1.000000 1.000000 1.000000
vn -2.915229 0.893084 2.654709
v -235.886993 327.632996 15.000000 1.000000 1.000000 1.000000
vn -2.915235 0.892973 -3.628546
v -230.809998 336.088989 0.000000 1.000000 1.000000 1.000000
vn -2.915235 0.892973 3.628546
v -230.809998 336.088989 15.000000 1.000000 1.000000 1.000000
vn -3.094760 -0.287096 -3.434122
v -230.199005 347.442993 0.000000 1.000000 1.000000 1.000000
vn -3.094760 -0.287096 3.434122
v -230.199005 347.442993 15.000000 1.000000 1.000000 1.000000
vn -1.526233 1.199293 -1.332028
v -233.348999 360.384003 0.000000 1.000000 1.000000 1.000000
vn -1.526233 1.199293 1.332028
v -233.348999 360.384003 15.000000 1.000000 1.000000 1.000000
vn 1.570795 1.570796 -1.570796
v -215.000000 360.384003 0.000000 1.000000 1.000000 1.000000
vn 1.570796 1.570796 1.570796
v -215.000000 360.384003 15.000000 1.000000 1.000000 1.000000
vn 1.565370 -1.701245 1.653937
v -205.000000 15.000000 15.000000 1.000000 1.000000 1.000000
vn -1.570796 -1.570796 1.570798
v -215.000000 15.000000 15.000000 1.000000 1.000000 1.000000
vn -1.570795 -1.570796 -1.570798
v -215.000000 15.000000 -0.000000 1.000000 1.000000 1.000000
vn 1.565370 -1.701245 -1.653937
v -205.000000 15.000000 0.000000 1.000000 1.000000 1.000000
vn 1.695818 1.434921 1.570796
v -199.414993 82.019501 15.000000 1.000000 1.000000 1.000000
vn 1.695817 1.434922 -1.570796
v -199.414993 82.019501 0.000000 1.000000 1.000000 1.000000
vn 1.682936 1.326243 4.782073
v -203.399002 82.351501 15.000000 1.000000 1.000000 1.000000
vn 1.682936 1.326243 -4.782073
v -203.399002 82.351501 0.000000 1.000000 1.000000 1.000000
vn 2.793977 -1.201472 3.648170
v -201.406998 95.284203 15.000000 1.000000 1.000000 1.000000
vn 2.793977 -1.201472 -3.648170
v -201.406998 95.284203 0.000000 1.000000 1.000000 1.000000
vn 2.688241 -0.350537 2.082111
v -190.000000 110.000000 15.000000 1.000000 1.000000 1.000000
vn 2.688242 -0.350537 -2.082111
v -190.000000 110.000000 0.000000 1.000000 1.000000 1.000000
vn 3.017549 0.611807 3.541669
v -195.703003 123.486000 15.000000 1.000000 1.000000 1.000000
vn 3.017549 0.611807 -3.541669
v -195.703003 123.486000 0.000000 1.000000 1.000000 1.000000
vn 3.133238 0.161790 3.038411
v -195.703003 138.503006 15.000000 1.000000 1.000000 1.000000
vn 3.133238 0.161790 -3.038411
v -195.703003 138.503006 0.000000 1.000000 1.000000 1.000000
vn 3.133238 0.161790 3.244773
v -200.000000 180.000000 15.000000 1.000000 1.000000 1.000000
vn 3.133238 0.161790 -3.244773
v -200.000000 180.000000 0.000000 1.000000 1.000000 1.000000
vn 3.128354 -0.203510 3.271516
v -200.000000 210.000000 15.000000 1.000000 1.000000 1.000000
vn 3.128354 -0.203510 -3.271516
v -200.000000 210.000000 0.000000 1.000000 1.000000 1.000000
vn 2.512038 1.044035 2.093960
v -195.703003 242.886993 15.000000 1.000000 1.000000 1.000000
vn 2.512037 1.044036 -2.093960
v -195.703003 242.886993 0.000000 1.000000 1.000000 1.000000
vn 2.201966 0.292988 4.712451
v -205.000000 250.000000 15.000000 1.000000 1.000000 1.000000
vn 2.201966 0.292987 -4.712451
v -205.000000 250.000000 0.000000 1.000000 1.000000 1.000000
vn 2.201986 0.292972 1.570750
v -195.703003 262.149994 15.000000 1.000000 1.000000 1.000000
vn 2.201986 0.292972 -1.570750
v -195.703003 262.149994 0.000000 1.000000 1.000000 1.000000
vn 2.512061 1.044046 4.189193
v -200.352005 265.707001 15.000000 1.000000 1.000000 1.000000
vn 2.512061 1.044046 -4.189193
v -200.352005 265.707001 0.000000 1.000000 1.000000 1.000000
vn 3.126083 -0.118990 2.957869
v -198.028000 283.496002 15.000000 1.000000 1.000000 1.000000
vn 3.126083 -0.118990 -2.957869
v -198.028000 283.496002 0.000000 1.000000 1.000000 1.000000
vn 2.815942 -0.870149 3.848626
v -199.190002 305.066986 15.000000 1.000000 1.000000 1.000000
vn 2.815942 -0.870149 -3.848626
v -199.190002 305.066986 0.000000 1.000000 1.000000 1.000000
vn 2.815941 -0.870126 2.434543
v -193.311005 312.748993 15.000000 1.000000 1.000000 1.000000
vn 2.815941 -0.870126 -2.434543
v -193.311005 312.748993 0.000000 1.000000 1.000000 1.000000
vn 2.915229 0.893083 2.654709
v -194.113007 327.632996 15.000000 1.000000 1.000000 1.000000
vn 2.915229 0.893084 -2.654709
v -194.113007 327.632996 0.000000 1.000000 1.000000 1.000000
vn 2.915235 0.892973 3.628546
v -199.190002 336.088989 15.000000 1.000000 1.000000 1.000000
vn 2.915235 0.892973 -3.628546
v -199.190002 336.088989 0.000000 1.000000 1.000000 1.000000
vn 3.094760 -0.287096 3.434122
v -199.800995 347.442993 15.000000 1.000000 1.000000 1.000000
vn 3.094760 -0.287096 -3.434122
v -199.800995 347.442993 0.000000 1.000000 1.000000 1.000000
vn 1.526233 1.199293 1.332028
v -196.651001 360.384003 15.000000 1.000000 1.000000 1.000000
vn 1.526233 1.199293 -1.332028
v -196.651001 360.384003 0.000000 1.000000 1.000000 1.000000
vn -1.570795 1.570796 1.570796
v -215.000000 360.384003 15.000000 1.000000 1.000000 1.000000
vn -1.570796 1.570796 -1.570796
v -215.000000 360.384003 -0.000000 1.000000 1.000000 1.000000
# 88 vertices, 0 vertices normals


usemtl material_0
f 1//1 2//2 4//4
f 4//4 2//2 3//3
f 5//5 1//1 6//6
f 6//6 1//1 4//4
f 7//7 5//5 8//8
f 8//8 5//5 6//6
f 9//9 7//7 10//10
f 10//10 7//7 8//8
f 11//11 9//9 12//12
f 12//12 9//9 10//10
f 13//13 11//11 14//14
f 14//14 11//11 12//12
f 15//15 13//13 16//16
f 16//16 13//13 14//14
f 17//17 15//15 18//18
f 18//18 15//15 16//16
f 19//19 17//17 20//20
f 20//20 17//17 18//18
f 21//21 19//19 22//22
f 22//22 19//19 20//20
f 23//23 21//21 24//24
f 24//24 21//21 22//22
f 25//25 23//23 26//26
f 26//26 23//23 24//24
f 27//27 25//25 28//28
f 28//28 25//25 26//26
f 29//29 27//27 30//30
f 30//30 27//27 28//28
f 31//31 29//29 32//32
f 32//32 29//29 30//30
f 33//33 31//31 34//34
f 34//34 31//31 32//32
f 35//35 33//33 36//36
f 36//36 33//33 34//34
f 37//37 35//35 38//38
f 38//38 35//35 36//36
f 39//39 37//37 40//40
f 40//40 37//37 38//38
f 41//41 39//39 42//42
f 42//42 39//39 40//40
f 43//43 41//41 44//44
f 44//44 41//41 42//42
f 2//2 43//43 3//3
f 3//3 43//43 44//44
f 44//44 24//24 3//3
f 3//3 24//24 8//8
f 3//3 8//8 4//4
f 4//4 8//8 6//6
f 42//42 40//40 44//44
f 44//44 40//40 24//24
f 24//24 40//40 32//32
f 32//32 40//40 38//38
f 32//32 38//38 36//36
f 36//36 34//34 32//32
f 30//30 28//28 32//32
f 32//32 28//28 24//24
f 28//28 26//26 24//24
f 22//22 20//20 24//24
f 24//24 20//20 18//18
f 24//24 18//18 8//8
f 8//8 18//18 10//10
f 10//10 18//18 16//16
f 10//10 16//16 14//14
f 14//14 12//12 10//10
f 2//2 23//23 43//43
f 43//43 23//23 39//39
f 43//43 39//39 41//41
f 23//23 2//2 7//7
f 7//7 2//2 1//1
f 7//7 1//1 5//5
f 23//23 7//7 17//17
f 17//17 7//7 9//9
f 17//17 9//9 15//15
f 15//15 9//9 13//13
f 13//13 9//9 11//11
f 17//17 19//19 23//23
f 23//23 19//19 21//21
f 25//25 27//27 23//23
f 23//23 27//27 31//31
f 23//23 31//31 39//39
f 39//39 31//31 37//37
f 37//37 31//31 35//35
f 35//35 31//31 33//33
f 27//27 29//29 31//31
f 45//45 46//46 48//48
f 48//48 46//46 47//47
f 49//49 45//45 50//50
f 50//50 45//45 48//48
f 51//51 49//49 52//52
f 52//52 49//49 50//50
f 53//53 51//51 54//54
f 54//54 51//51 52//52
f 55//55 53//53 56//56
f 56//56 53//53 54//54
f 57//57 55//55 58//58
f 58//58 55//55 56//56
f 59//59 57//57 60//60
f 60//60 57//57 58//58
f 61//61 59//59 62//62
f 62//62 59//59 60//60
f 63//63 61//61 64//64
f 64//64 61//61 62//62
f 65//65 63//63 66//66
f 66//66 63//63 64//64
f 67//67 65//65 68//68
f 68//68 65//65 66//66
f 69//69 67//67 70//70
f 70//70 67//67 68//68
f 71//71 69//69 72//72
f 72//72 69//69 70//70
f 73//73 71//71 74//74
f 74//74 71//71 72//72
f 75//75 73//73 76//76
f 76//76 73//73 74//74
f 77//77 75//75 78//78
f 78//78 75//75 76//76
f 79//79 77//77 80//80
f 80//80 77//77 78//78
f 81//81 79//79 82//82
f 82//82 79//79 80//80
f 83//83 81//81 84//84
f 84//84 81//81 82//82
f 85//85 83//83 86//86
f 86//86 83//83 84//84
f 87//87 85//85 88//88
f 88//88 85//85 86//86
f 46//46 87//87 47//47
f 47//47 87//87 88//88
f 88//88 68//68 47//47
f 47//47 68//68 52//52
f 47//47 52//52 48//48
f 48//48 52//52 50//50
f 86//86 84//84 88//88
f 88//88 84//84 68//68
f 68//68 84//84 76//76
f 76//76 84//84 82//82
f 76//76 82//82 80//80
f 80//80 78//78 76//76
f 74//74 72//72 76//76
f 76//76 72//72 68//68
f 72//72 70//70 68//68
f 66//66 64//64 68//68
f 68//68 64//64 62//62
f 68//68 62//62 52//52
f 52//52 62//62 54//54
f 54//54 62//62 60//60
f 54//54 60//60 58//58
f 58//58 56//56 54//54
f 46//46 67//67 87//87
f 87//87 67//67 83//83
f 87//87 83//83 85//85
f 67//67 46//46 51//51
f 51//51 46//46 45//45
f 51//51 45//45 49//49
f 67//67 51//51 61//61
f 61//61 51//51 53//53
f 61//61 53//53 59//59
f 59//59 53//53 57//57
f 57//57 53//53 55//55
f 61//61 63//63 67//67
f 67//67 63//63 65//65
f 69//69 71//71 67//67
f 67//67 71//71 75//75
f 67//67 75//75 83//83
f 83//83 75//75 81//81
f 81//81 75//75 79//79
f 79//79 75//75 77//77
f 71//71 73//73 75//75
# 168 faces, 0 coords texture

# End of File
